PathFileType	4	(X/Y/Z)	Walk6.trc
DataRate	CameraRate	NumFrames	NumMarkers	Units	OrigDataRate	OrigDataStartFrame	OrigNumFrames
200.000000	200.000000	8	59	mm	200.000000	239	554
Frame#	Times		C7		CLAV		STRN		RBack		LASI		RASI		RACR1		RUA1		RElbow		RFA1		RWRR		RWRU		RCAR		LACR1		LFA1		LWRU		LCAR		RTH1		RTH3		RTH2		RTH4		RLFC		LTH1		LTH3		LTH2		LTH4		LLFC		LTB1		LTB3		LTB2		LTB4		LMMAL		LMT1		LToe		LFHD		RFHD		T10		LMT5		LPSI		RPSI		LLMAL		RBHD		RTB1		LUA1		LBHD		RTB2		RTB3		RToe		RTB4		LCAL		RElbowM		RCAL		RMT1		LElbow		LElbowM		LWRR		RLMAL		RMT5		RMMAL
			X1	Y1	Z1	X2	Y2	Z2	X3	Y3	Z3	X4	Y4	Z4	X5	Y5	Z5	X6	Y6	Z6	X7	Y7	Z7	X8	Y8	Z8	X9	Y9	Z9	X10	Y10	Z10	X11	Y11	Z11	X12	Y12	Z12	X13	Y13	Z13	X14	Y14	Z14	X15	Y15	Z15	X16	Y16	Z16	X17	Y17	Z17	X18	Y18	Z18	X19	Y19	Z19	X20	Y20	Z20	X21	Y21	Z21	X22	Y22	Z22	X23	Y23	Z23	X24	Y24	Z24	X25	Y25	Z25	X26	Y26	Z26	X27	Y27	Z27	X28	Y28	Z28	X29	Y29	Z29	X30	Y30	Z30	X31	Y31	Z31	X32	Y32	Z32	X33	Y33	Z33	X34	Y34	Z34	X35	Y35	Z35	X36	Y36	Z36	X37	Y37	Z37	X38	Y38	Z38	X39	Y39	Z39	X40	Y40	Z40	X41	Y41	Z41	X42	Y42	Z42	X43	Y43	Z43	X44	Y44	Z44	X45	Y45	Z45	X46	Y46	Z46	X47	Y47	Z47	X48	Y48	Z48	X49	Y49	Z49	X50	Y50	Z50	X51	Y51	Z51	X52	Y52	Z52	X53	Y53	Z53	X54	Y54	Z54	X55	Y55	Z55	X56	Y56	Z56	X57	Y57	Z57	X58	Y58	Z58	X59	Y59	Z59

239	1.195	-805.93	1403.4	-17.267	-680.73	1326	-25.267	-605	1100.5	-20.877	-846.41	1297.5	80.194	-649.89	921.51	-147.33	-661.12	929.66	128.62	-728.17	1336	149.28	-722.27	1126.8	214.48	-724.23	1019.1	241.77	-618.53	904.98	227.56	-564.73	821.66	177.1	-603.72	793.02	232.34	-544.96	776.22	222.69	-748.83	1337.9	-192.91	-808.26	894.04	-273.32	-862.78	783.71	-285.05	-825.09	731.47	-284.48	-779.57	730.2	158.68	-812.25	549	114.65	-729.84	637.79	107.44	-796.53	639.65	134.69	-847.48	447.24	96.311	-712.26	720.84	-189.01	-653.93	546.28	-153.32	-621.85	654.64	-132.18	-682.38	629.29	-173.61	-624.03	447.29	-135.81	-556.37	369.89	-59.408	-503.22	189.31	-60.227	-557.61	271.5	-129.41	-527.67	278.51	-63.838	-485.8	88.529	-24.019	-350.11	86.82	-72.223	-317.24	95.51	-97.212	-646.93	1570	-58.977	-636.86	1573.8	13.445	-836.57	1119.1	-18.123	-385.91	52.139	-131.77	-864.29	954.81	-72.887	-867.26	966.92	41.072	-501.49	65.459	-101.8	-804.45	1531.2	58.655	-869.79	321.97	17.647	-800.75	1134.8	-237.84	-816.52	1535.7	-67.952	-935.83	250.03	79.413	-972.63	168.28	0.86007	-873.44	24.314	47.396	-921.8	244.76	9.7422	-532.22	21.928	-42.631	-740.14	992.75	159.6	-1111.3	69.584	-10.785	-913.45	35.597	6.9237	-836.79	1020.4	-247.3	-844.67	1006.3	-178.37	-806.41	772.22	-242.1	-1061.7	89.99	41.623	-968.91	20.736	85.478	-1032.6	99.987	-35.485
240	1.2	-799.81	1402.5	-18.064	-674.53	1325.2	-25.972	-598.69	1099.7	-21.314	-840.27	1296.8	79.448	-643.39	920.61	-147.2	-655.12	928.84	128.46	-722.04	1335.2	148.58	-716.38	1126.2	213.99	-718.61	1018.5	241.47	-613.1	904.18	227.3	-559.4	820.79	176.85	-598.39	792.21	232.15	-539.64	775.38	222.49	-742.65	1336.8	-193.64	-803.71	893.15	-273.57	-858.55	782.96	-285.04	-821	730.63	-284.54	-774.24	729.52	158.56	-807.66	548.4	114.71	-724.9	636.87	107.36	-791.55	639.02	134.66	-843.43	446.85	96.314	-705.27	720.76	-189.02	-646.67	546.34	-153.17	-614.9	654.73	-131.84	-675.24	629.28	-173.5	-616.94	447.1	-135.62	-550.11	369.26	-58.97	-498.1	188.45	-59.633	-551.64	270.98	-128.95	-521.95	277.74	-63.301	-481.52	87.514	-23.497	-345.79	84.304	-71.475	-312.66	92.329	-96.338	-641.08	1569.3	-59.768	-631.04	1573.2	12.651	-830.29	1118.3	-18.649	-381.8	49.855	-131.18	-858.05	954.27	-73.329	-861.13	966.21	40.678	-497.26	64.773	-101.33	-798.59	1530.3	57.814	-866.86	321.62	17.961	-795.24	1133.9	-238.34	-810.61	1534.7	-68.798	-933.64	250.49	79.753	-971.2	168.97	1.3366	-873.45	24.31	47.347	-919.59	244.93	10.119	-528.83	21.987	-42.249	-731.05	991.75	159.6	-1110.9	71.77	-10.182	-913.41	35.537	6.9447	-831.77	1019.7	-247.59	-839.53	1005.6	-178.63	-802.08	771.36	-242.25	-1061	91.552	42.128	-968.86	20.711	85.456	-1031.9	101.27	-34.93
241	1.205	-793.66	1401.8	-18.891	-668.3	1324.5	-26.707	-592.33	1099	-21.776	-834.1	1296.1	78.671	-636.86	919.79	-147.08	-649.05	928.03	128.25	-715.87	1334.6	147.84	-710.5	1125.6	213.47	-713.03	1017.9	241.13	-607.74	903.38	227.05	-554.16	819.9	176.61	-593.19	791.41	231.97	-534.46	774.53	222.3	-736.45	1335.9	-194.4	-799.07	892.29	-273.83	-854.21	782.23	-285.04	-816.79	729.83	-284.61	-768.83	728.84	158.41	-802.94	547.8	114.73	-719.86	635.97	107.26	-786.46	638.38	134.61	-839.19	446.45	96.292	-698.18	720.82	-189	-639.28	546.55	-153.04	-607.83	654.98	-131.53	-668	629.42	-173.39	-609.73	447.02	-135.46	-543.88	368.66	-58.527	-493.28	187.56	-59.033	-545.79	270.5	-128.5	-516.39	276.97	-62.756	-477.73	86.437	-22.984	-341.95	81.408	-70.709	-308.55	88.668	-95.436	-635.22	1568.7	-60.576	-625.2	1572.7	11.839	-823.98	1117.5	-19.166	-378.24	47.335	-130.64	-851.81	953.82	-73.747	-854.97	965.54	40.321	-493.53	64.087	-100.89	-792.71	1529.5	56.951	-863.76	321.29	18.274	-789.67	1133.1	-238.87	-804.68	1533.8	-69.667	-931.3	251.01	80.118	-969.66	169.74	1.86	-873.46	24.308	47.285	-917.25	245.15	10.521	-526.07	22.14	-41.916	-722.7	990.85	159.59	-1110.3	74.127	-9.5024	-913.38	35.471	6.9692	-826.68	1018.9	-247.91	-834.34	1005	-178.92	-797.64	770.53	-242.4	-1060.3	93.24	42.699	-968.79	20.696	85.436	-1031	102.65	-34.309
242	1.21	-787.48	1401	-19.747	-662.03	1323.8	-27.467	-585.93	1098.3	-22.262	-827.91	1295.4	77.865	-630.32	919.03	-146.99	-642.92	927.21	127.98	-709.67	1333.9	147.09	-704.63	1125	212.93	-707.5	1017.4	240.75	-602.46	902.61	226.81	-549.02	819.01	176.38	-588.12	790.61	231.78	-529.4	773.66	222.14	-730.23	1334.9	-195.18	-794.36	891.47	-274.1	-849.77	781.54	-285.04	-812.47	729.08	-284.69	-763.33	728.18	158.21	-798.06	547.19	114.73	-714.7	635.09	107.12	-781.26	637.74	134.52	-834.74	446.05	96.244	-691.04	721.03	-188.97	-631.8	546.9	-152.92	-600.67	655.37	-131.26	-660.69	629.7	-173.26	-602.44	447.08	-135.33	-537.7	368.1	-58.083	-488.73	186.66	-58.434	-540.06	270.09	-128.06	-511	276.22	-62.209	-474.38	85.333	-22.484	-338.56	78.211	-69.932	-304.85	84.616	-94.515	-629.33	1568.2	-61.4	-619.35	1572.2	11.011	-817.63	1116.8	-19.67	-375.19	44.656	-130.18	-845.57	953.48	-74.138	-848.78	964.9	40.002	-490.25	63.429	-100.48	-786.82	1528.8	56.065	-860.48	320.98	18.584	-784.06	1132.3	-239.41	-798.74	1533	-70.559	-928.79	251.6	80.511	-968	170.58	2.4339	-873.48	24.307	47.207	-914.76	245.41	10.949	-523.85	22.389	-41.634	-715.13	990.07	159.55	-1109.6	76.673	-8.7402	-913.36	35.397	6.9973	-821.52	1018.2	-248.24	-829.09	1004.3	-179.24	-793.1	769.75	-242.56	-1059.4	95.068	43.342	-968.71	20.694	85.418	-1030.1	104.16	-33.617
243	1.215	-781.28	1400.4	-20.629	-655.74	1323.2	-28.249	-579.49	1097.7	-22.769	-821.69	1294.8	77.035	-623.75	918.34	-146.92	-636.74	926.4	127.65	-703.44	1333.4	146.31	-698.79	1124.6	212.37	-702.01	1016.9	240.35	-597.26	901.85	226.56	-543.97	818.12	176.17	-583.17	789.82	231.6	-524.48	772.79	221.99	-723.98	1334	-195.99	-789.56	890.7	-274.37	-845.23	780.88	-285.03	-808.03	728.37	-284.76	-757.73	727.53	157.98	-793	546.58	114.7	-709.41	634.24	106.96	-775.92	637.1	134.4	-830.05	445.64	96.169	-683.87	721.36	-188.92	-624.26	547.39	-152.8	-593.43	655.9	-131.03	-653.34	630.12	-173.12	-595.08	447.25	-135.23	-531.57	367.6	-57.644	-484.44	185.78	-57.846	-534.43	269.76	-127.64	-505.75	275.5	-61.668	-471.41	84.236	-22.002	-335.56	74.798	-69.154	-301.52	80.277	-93.589	-623.43	1567.8	-62.238	-613.48	1571.8	10.169	-811.27	1116.2	-20.157	-372.57	41.905	-129.81	-839.33	953.23	-74.5	-842.58	964.31	39.724	-487.36	62.822	-100.1	-780.9	1528	55.159	-856.98	320.69	18.89	-778.4	1131.5	-239.97	-792.77	1532.2	-71.472	-926.08	252.26	80.935	-966.18	171.52	3.0618	-873.51	24.306	47.113	-912.09	245.74	11.406	-522.09	22.731	-41.405	-708.38	989.41	159.49	-1108.8	79.427	-7.8906	-913.35	35.315	7.029	-816.3	1017.5	-248.58	-823.79	1003.7	-179.57	-788.44	769.01	-242.72	-1058.4	97.045	44.061	-968.62	20.712	85.402	-1029	105.78	-32.848
244	1.22	-775.04	1399.8	-21.533	-649.42	1322.6	-29.052	-573.01	1097.1	-23.294	-815.44	1294.3	76.184	-617.18	917.73	-146.86	-630.51	925.59	127.27	-697.17	1332.9	145.51	-692.96	1124.1	211.77	-696.57	1016.5	239.91	-592.15	901.13	226.31	-539.03	817.24	175.98	-578.37	789.05	231.42	-519.7	771.91	221.88	-717.7	1333.2	-196.83	-784.68	889.98	-274.66	-840.59	780.27	-285.03	-803.48	727.71	-284.85	-752.02	726.89	157.71	-787.76	545.96	114.65	-703.97	633.43	106.75	-770.44	636.46	134.25	-825.1	445.23	96.069	-676.69	721.82	-188.85	-616.69	548.01	-152.68	-586.15	656.57	-130.85	-645.98	630.67	-172.96	-587.67	447.55	-135.16	-525.5	367.17	-57.216	-480.38	184.94	-57.274	-528.89	269.51	-127.26	-500.64	274.84	-61.138	-468.79	83.174	-21.541	-332.9	71.261	-68.381	-298.52	75.767	-92.666	-617.52	1567.4	-63.09	-607.6	1571.4	9.3149	-804.9	1115.7	-20.621	-370.34	39.171	-129.56	-833.09	953.09	-74.83	-836.35	963.75	39.489	-484.81	62.282	-99.748	-774.97	1527.4	54.233	-853.25	320.43	19.193	-772.68	1130.8	-240.54	-786.77	1531.5	-72.405	-923.15	253	81.392	-964.19	172.55	3.7472	-873.56	24.305	47.002	-909.22	246.13	11.895	-520.71	23.154	-41.23	-702.42	988.88	159.38	-1107.9	82.406	-6.9497	-913.34	35.224	7.0649	-810.99	1016.9	-248.94	-818.42	1003.2	-179.93	-783.68	768.33	-242.88	-1057.2	99.183	44.861	-968.51	20.756	85.386	-1027.9	107.54	-31.996
245	1.225	-768.76	1399.3	-22.455	-643.07	1322.2	-29.869	-566.5	1096.6	-23.834	-809.17	1293.9	75.319	-610.6	917.21	-146.82	-624.25	924.77	126.82	-690.87	1332.5	144.7	-687.16	1123.8	211.15	-691.17	1016.2	239.43	-587.12	900.44	226.05	-534.18	816.37	175.81	-573.7	788.31	231.24	-515.05	771.05	221.78	-711.39	1332.4	-197.68	-779.71	889.31	-274.94	-835.83	779.7	-285.02	-798.82	727.11	-284.93	-746.21	726.27	157.4	-782.31	545.35	114.57	-698.37	632.66	106.51	-764.8	635.82	134.07	-819.87	444.81	95.949	-669.54	722.39	-188.78	-609.11	548.76	-152.55	-578.85	657.37	-130.72	-638.63	631.34	-172.79	-580.24	447.97	-135.13	-519.5	366.81	-56.806	-476.53	184.15	-56.724	-523.43	269.34	-126.91	-495.66	274.23	-60.628	-466.47	82.166	-21.102	-330.57	67.693	-67.615	-295.82	71.202	-91.752	-611.58	1567.1	-63.953	-601.71	1571.2	8.4507	-798.53	1115.2	-21.058	-368.43	36.536	-129.43	-826.87	953.04	-75.126	-830.12	963.25	39.298	-482.55	61.817	-99.431	-769.03	1526.8	53.287	-849.27	320.2	19.496	-766.91	1130.1	-241.11	-780.76	1530.9	-73.359	-919.97	253.83	81.886	-962.01	173.68	4.4941	-873.63	24.302	46.873	-906.12	246.58	12.418	-519.64	23.641	-41.108	-697.24	988.49	159.24	-1106.7	85.629	-5.9154	-913.34	35.124	7.1061	-805.61	1016.4	-249.31	-813	1002.7	-180.3	-778.8	767.71	-243.05	-1055.9	101.49	45.746	-968.37	20.832	85.372	-1026.5	109.44	-31.057
246	1.23	-762.46	1398.9	-23.392	-636.7	1321.8	-30.698	-559.97	1096.2	-24.388	-802.87	1293.5	74.447	-604.03	916.79	-146.8	-617.96	923.97	126.3	-684.53	1332.2	143.88	-681.37	1123.5	210.51	-685.82	1015.9	238.91	-582.18	899.8	225.8	-529.45	815.52	175.65	-569.17	787.6	231.05	-510.55	770.19	221.71	-705.05	1331.7	-198.54	-774.65	888.71	-275.23	-830.97	779.19	-285.01	-794.04	726.57	-285.02	-740.27	725.67	157.05	-776.63	544.72	114.46	-692.61	631.94	106.22	-758.99	635.19	133.86	-814.32	444.39	95.812	-662.43	723.05	-188.71	-601.55	549.62	-152.42	-571.54	658.3	-130.65	-631.32	632.11	-172.6	-572.8	448.5	-135.14	-513.56	366.52	-56.422	-472.87	183.42	-56.2	-518.08	269.26	-126.62	-490.82	273.68	-60.144	-464.43	81.228	-20.683	-328.52	64.175	-66.859	-293.4	66.689	-90.847	-605.63	1566.9	-64.826	-595.8	1571	7.5784	-792.16	1114.8	-21.464	-366.81	34.071	-129.42	-820.65	953.08	-75.387	-823.89	962.79	39.151	-480.54	61.429	-99.141	-763.06	1526.3	52.325	-844.99	319.99	19.803	-761.07	1129.5	-241.7	-774.73	1530.3	-74.332	-916.51	254.74	82.423	-959.6	174.92	5.3064	-873.72	24.296	46.727	-902.78	247.11	12.981	-518.8	24.17	-41.037	-692.79	988.23	159.04	-1105.3	89.11	-4.7876	-913.34	35.018	7.1541	-800.14	1015.8	-249.69	-807.51	1002.3	-180.68	-773.82	767.15	-243.22	-1054.3	103.98	46.718	-968.21	20.95	85.36	-1024.9	111.49	-30.027
